#!OML:ASF H:\Punching\Project 1\Capture day 1\Session 1\female.ASF
:FULLY-SPECIFIED
:DEGREES
1269
root 0.961902 14.3029 -0.126924 21.6899 17.5792 6.61814
lowerback -1.91385 -4.07171 -0.0916788
upperback -7.38667 -5.47332 -0.317206
thorax -6.63548 -2.7245 -0.0655596
lowerneck -14.2847 6.32 9.09442
upperneck 28.9181 10.6398 -12.2899
head 13.2879 4.23853 -4.65712
rclavicle -6.58474e-015 -7.95139e-015
rhumerus 21.4865 20.2404 -62.9651
rradius 130.714
rwrist -21.8023
rhand -32.9425 7.36077
rfingers 7.12502
rthumb -6.15869 -22.5297
lclavicle -6.58474e-015 -7.95139e-015
lhumerus -1.04123 -18.1583 72.6831
lradius 139.25
lwrist -0.749906
lhand -27.9566 2.62822
lfingers 7.12502
lthumb -1.34401 32.6037
rfemur -61.564 -10.4676 14.3347
rtibia 65.8393
rfoot -18.7076 -20.1075
rtoes 6.76015
lfemur -2.19899 -12.8723 -9.56068
ltibia 26.5097
lfoot -18.1381 20.0714
ltoes -22.4028
1270
root 1.02834 14.2899 -0.203594 21.7557 17.7369 6.62454
lowerback -2.01554 -3.91666 -0.125614
upperback -7.37467 -5.26031 -0.265614
thorax -6.55405 -2.6148 -0.010563
lowerneck -14.363 6.09721 8.91848
upperneck 28.9908 10.286 -12.0533
head 13.2555 4.08914 -4.59314
rclavicle 7.68551e-014 1.74931e-014
rhumerus 21.3573 19.9371 -63.0803
rradius 130.742
rwrist -21.7143
rhand -33.0759 7.20251
rfingers 7.12502
rthumb -6.28744 -22.6842
lclavicle 7.68551e-014 1.74931e-014
lhumerus -0.963093 -18.6689 72.9756
lradius 139.189
lwrist -0.707024
lhand -27.9752 2.6666
lfingers 7.12502
lthumb -1.36194 32.642
rfemur -61.8497 -10.9198 14.1053
rtibia 65.7912
rfoot -18.3422 -19.8491
rtoes 6.67369
lfemur -2.03768 -13.082 -9.908
ltibia 26.0626
lfoot -19.5526 20.2436
ltoes -22.4028
1271
root 1.09591 14.2778 -0.279766 21.7707 17.8366 6.59917
lowerback -2.10023 -3.73782 -0.137602
upperback -7.35675 -5.01545 -0.21986
thorax -6.47907 -2.49062 0.0269829
lowerneck -14.4327 5.87065 8.74152
upperneck 29.0891 9.92529 -11.7988
head 13.232 3.93886 -4.52379
rclavicle 2.93207e-015 3.97569e-015
rhumerus 21.1895 19.6554 -63.2212
rradius 130.76
rwrist -21.5828
rhand -33.1979 7.07359
rfingers 7.12502
rthumb -6.40525 -22.8096
lclavicle 2.93207e-015 3.97569e-015
lhumerus -0.916205 -19.1797 73.2205
lradius 139.139
lwrist -0.62262
lhand -27.9869 2.7266
lfingers 7.12502
lthumb -1.37327 32.7019
rfemur -62.0797 -11.3398 13.9006
rtibia 65.6988
rfoot -17.9568 -19.5553
rtoes 6.57053
lfemur -1.85022 -13.2544 -10.2569
ltibia 25.6422
lfoot -20.9198 20.3871
ltoes -22.2762
1272
root 1.16423 14.2662 -0.355647 21.7338 17.8794 6.54532
lowerback -2.1593 -3.53789 -0.13415
upperback -7.33234 -4.74269 -0.180746
thorax -6.41417 -2.35352 0.0504785
lowerneck -14.4931 5.64249 8.57905
upperneck 29.204 9.55967 -11.5401
head 13.2153 3.78885 -4.45665
rclavicle 3.85642e-014 -7.95139e-015
rhumerus 20.9842 19.39 -63.3924
rradius 130.767
rwrist -21.4247
rhand -33.3011 6.98097
rfingers 7.12502
rthumb -6.50489 -22.8991
lclavicle 3.85642e-014 -7.95139e-015
lhumerus -0.89828 -19.6804 73.4168
lradius 139.095
lwrist -0.533407
lhand -27.9874 2.78392
lfingers 7.12502
lthumb -1.37371 32.7592
rfemur -62.2569 -11.723 13.715
rtibia 65.5678
rfoot -17.553 -19.2312
rtoes 6.45077
lfemur -1.63583 -13.3917 -10.6051
ltibia 25.2489
lfoot -22.2098 20.5026
ltoes -21.9858
1273
root 1.23309 14.2553 -0.431063 21.6449 17.8745 6.4764
lowerback -2.18428 -3.32325 -0.125832
upperback -7.30308 -4.45092 -0.149585
thorax -6.36502 -2.20731 0.0650964
lowerneck -14.5426 5.41303 8.42722
upperneck 29.3343 9.18939 -11.2741
head 13.2045 3.63924 -4.38973
rclavicle -5.38706e-014 -2.8625e-014
rhumerus 20.7461 19.1362 -63.5886
rradius 130.769
rwrist -21.2611
rhand -33.3805 6.94624
rfingers 7.12502
rthumb -6.58158 -22.9315
lclavicle -5.38706e-014 -2.8625e-014
lhumerus -0.912741 -20.1632 73.5692
lradius 139.053
lwrist -0.47174
lhand -27.9728 2.83692
lfingers 7.12502
lthumb -1.35968 32.8123
rfemur -62.3764 -12.0797 13.5351
rtibia 65.405
rfoot -17.1346 -18.8756
rtoes 6.31046
lfemur -1.39111 -13.5008 -10.9627
ltibia 24.8857
lfoot -23.4163 20.601
ltoes -21.6165
1274
root 1.30205 14.2453 -0.505995 21.513 17.834 6.39981
lowerback -2.17589 -3.10144 -0.117269
upperback -7.26894 -4.15033 -0.126315
thorax -6.3307 -2.05686 0.0733687
lowerneck -14.5864 5.18646 8.29573
upperneck 29.4714 8.8191 -11.0099
head 13.1987 3.49202 -4.32711
rclavicle 5.28767e-014 -2.06736e-014
rhumerus 20.4847 18.8906 -63.8138
rradius 130.769
rwrist -21.1074
rhand -33.4305 6.91599
rfingers 7.12502
rthumb -6.62977 -22.9602
lclavicle 5.28767e-014 -2.06736e-014
lhumerus -0.947483 -20.6221 73.6718
lradius 139.011
lwrist -0.45477
lhand -27.9489 2.89239
lfingers 7.12502
lthumb -1.3366 32.8679
rfemur -62.4425 -12.4167 13.355
rtibia 65.2141
rfoot -16.7045 -18.4916
rtoes 6.14344
lfemur -1.12928 -13.5814 -11.3315
ltibia 24.5577
lfoot -24.5084 20.7196
ltoes -21.279
1275
root 1.37063 14.2366 -0.58023 21.3536 17.7655 6.33173
lowerback -2.14499 -2.87756 -0.122965
upperback -7.22923 -3.84806 -0.114489
thorax -6.30346 -1.90508 0.0788367
lowerneck -14.6325 4.96417 8.18679
upperneck 29.6121 8.44908 -10.7474
head 13.1982 3.34735 -4.26887
rclavicle 4.29872e-014 1.07344e-014
rhumerus 20.2111 18.6492 -64.0637
rradius 130.765
rwrist -20.954
rhand -33.4585 6.87851
rfingers 7.12502
rthumb -6.65687 -22.9969
lclavicle 4.29872e-014 1.07344e-014
lhumerus -0.997253 -21.0601 73.7228
lradius 138.973
lwrist -0.484014
lhand -27.9184 2.9382
lfingers 7.12502
lthumb -1.30713 32.9139
rfemur -62.4669 -12.739 13.1589
rtibia 65.0013
rfoot -16.2658 -18.0842
rtoes 5.93648
lfemur -0.866322 -13.6245 -11.723
ltibia 24.265
lfoot -25.4822 20.8802
ltoes -20.9913
1276
root 1.43838 14.2292 -0.653663 21.1857 17.6776 6.28697
lowerback -2.10216 -2.65757 -0.156451
upperback -7.18972 -3.55228 -0.114701
thorax -6.28265 -1.75533 0.0880581
lowerneck -14.6746 4.74684 8.0984
upperneck 29.7485 8.0804 -10.4868
head 13.1982 3.20576 -4.21441
rclavicle -7.39479e-014 -1.39149e-014
rhumerus 19.9288 18.416 -64.3335
rradius 130.754
rwrist -20.7856
rhand -33.4766 6.81373
rfingers 7.12502
rthumb -6.67432 -23.0611
lclavicle -7.39479e-014 -1.39149e-014
lhumerus -1.0508 -21.4779 73.722
lradius 138.937
lwrist -0.542607
lhand -27.8888 2.984
lfingers 7.12502
lthumb -1.27849 32.9599
rfemur -62.467 -13.0529 12.9333
rtibia 64.7726
rfoot -15.815 -17.6588
rtoes 5.70143
lfemur -0.619507 -13.6304 -12.1472
ltibia 24.0029
lfoot -26.3401 21.1036
ltoes -20.7569
